<?xml version="1.0" encoding="UTF-8" standalone="no"?>
<!DOCTYPE svg PUBLIC "-//W3C//DTD SVG 1.1//EN" "http://www.w3.org/Graphics/SVG/1.1/DTD/svg11.dtd">
<svg width="100%" height="100%" viewBox="0 0 8000 4500" version="1.1" xmlns="http://www.w3.org/2000/svg" xmlns:xlink="http://www.w3.org/1999/xlink" xml:space="preserve" xmlns:serif="http://www.serif.com/" style="fill-rule:evenodd;clip-rule:evenodd;stroke-linejoin:round;stroke-miterlimit:2;">
    <g transform="matrix(4.16667,0,0,4.16667,0,0)">
        <path d="M347.88,742.48C348.61,740.88 355.88,743.2 359.48,746.39C362.37,749.14 363.39,751.45 363.25,754.5C363.09,760.5 357.15,775.8 358.9,788.99C360.78,802.61 368.75,808.83 370.9,810.43C373.05,812.03 374.67,812.6 375.39,812.6C376.11,812.6 376.99,812.76 377.71,809.71C378.937,803.834 380.632,798.065 382.78,792.46C383.36,790.87 384.37,789.71 384.95,789.86C385.53,790.01 385.25,791.74 384.95,793.19C383.558,799.859 383.22,806.706 383.95,813.48C384.23,816.48 386.4,820.28 386.55,821.88C386.7,823.48 386.84,825.65 384.81,826.8C382.93,828.12 375.54,827.1 365.54,818.11C357.687,810.517 352.715,800.423 351.48,789.57C350.03,774.49 353.08,763.04 353.22,759.29C353.36,755.54 354.22,753.05 353.36,750.59C352.327,747.975 350.627,745.675 348.43,743.92C347.9,743.66 347.658,743.027 347.88,742.48ZM413.53,760C413.53,759.42 413.81,759.12 414.82,758.84C423.754,755.947 433.593,758.238 440.33,764.78C446.12,770.29 449.03,777.53 449.17,781.16C449.31,784.79 447.87,789.99 442.17,788.68C439.42,787.96 438.98,785.79 438.55,784.49C438.12,783.19 433.33,766.49 425.55,762.61C421.06,760.44 415.55,760.86 414.68,760.86C414.1,760.87 413.53,760.45 413.53,760Z" style="fill:white;fill-rule:nonzero;"/>
        <path d="M608.27,750.16C607.83,754.36 602.03,753.35 599.85,753.05C597.98,752.77 577.97,749.72 559.85,751.45C559.56,760.29 559.27,770.45 559.42,777.68C562.42,783.48 563.76,792.46 563.62,803.77C563.19,832.46 536.52,841.3 533.33,842.32C532.33,842.75 531.45,842.9 531.16,842.32C530.87,841.58 531.16,840.86 532.47,840.32C554.93,830.32 556.23,807 556.23,807C555.23,808.87 550.72,812.5 547.39,812.36C540.73,812.36 537.39,804.96 536.08,802.21C534.77,799.46 532.47,796.27 531.31,788.45C530.58,783.66 532.31,772.65 543.76,770.34C546.95,769.478 550.345,769.783 553.33,771.2C553.77,768.01 554.21,762.36 553.91,752.2C536.52,754.65 531.59,757.27 521.16,761.75C518.27,763.05 509.86,767.75 501.6,762.63C498.881,760.934 496.439,758.829 494.36,756.39C493.2,755.23 492.76,753.93 493.36,753.39C494.66,752.07 496.99,753.96 500.76,754.39C505.895,754.839 511.068,754.546 516.12,753.52C520.03,752.64 539.01,749.03 553.79,746.7C553.79,743.233 553.643,739.323 553.35,734.97C553.06,729.75 550.6,725.4 548.71,723.8C547.27,722.65 545.38,722.22 545.53,721.05C545.67,720.05 546.25,719.61 547.41,719.17C550.281,718.423 553.325,718.717 556,720C560.2,721.88 561.51,723.33 562.09,725.79C562.52,727.96 561.95,729.27 561.51,730.85C566,733.62 576.43,739.7 583.51,741.58C592.64,744.19 598.29,743.58 601.34,744.33C604.78,744.93 608.84,746 608.27,750.16ZM552.62,788.85C552.47,778.85 549.28,774.21 545.62,774.35C543.73,774.49 533.3,778.12 535.62,787.53C537.79,796.96 542.72,801.31 547.21,801.31C550.15,801.31 552.9,798.84 552.62,788.85ZM572.47,741.6C571.31,740.88 564.79,736.1 561.02,733.34C560.73,735.66 560.44,740.34 560.15,745.81C563.463,745.301 566.801,744.967 570.15,744.81C571.75,744.81 574.64,744.52 574.78,743.94C574.94,743.49 573.77,742.48 572.47,741.6ZM608.69,733.34C609.69,735.96 609.42,737.55 607.97,738.71C606.52,739.87 603.18,740.3 600.43,737.71C597.43,734.82 592.32,730.61 588.26,729.89C586.67,729.6 584.5,729.31 584.35,728.3C584.35,726.98 587.25,726.56 589.28,726.41C591.31,726.26 605.36,725.09 608.69,733.34ZM618.26,726.82C616.81,727.98 613.91,728.28 611.02,725.82C608.11,723.06 603.02,719.01 599.02,718.43C597.43,718.14 595.25,717.85 595.25,716.84C595.1,715.68 598.15,715.24 600.02,714.95C602.2,714.81 616.4,713.95 619.45,722.78C620.14,725.09 619.13,726.24 618.26,726.82Z" style="fill:white;fill-rule:nonzero;"/>
        <path d="M781.83,800.44C768.65,826.38 756.76,826.66 749.37,825.79C742.023,825.052 735.934,819.663 734.31,812.46C731.98,802.31 739.23,777.24 740.67,770.14C742.11,763.04 744.3,754.94 739.81,750.14C732.42,742.6 714.3,754.05 705.47,761.58C698.738,767.55 692.7,774.259 687.47,781.58C686.59,793.33 686.02,805.65 686.89,812.45C688.49,827.23 689.78,829.45 689.06,833.75C688.866,836.144 686.821,837.999 684.42,837.96C682.11,838.1 678.63,834.19 678.05,829.7C677.47,825.21 676.16,821.43 673.71,815.2C673.27,813.91 672.25,812.01 671.1,809.4C668.78,813.91 666.45,818.54 664.43,820.71C661.38,824.04 659.51,824.77 657.62,823.03C655.3,821.03 657.47,814.33 661.82,807.09C662.82,805.35 664.57,802.88 666.45,799.85C662.1,790.28 657.76,778.69 659.07,771.73C659.65,768.84 661.24,767.24 663.7,765.36C667.03,762.61 676.02,759.28 683.84,757.68C684.28,749.85 684.56,743.48 684.56,741.01C684.32,736.956 682.859,733.069 680.37,729.86C678.48,727.25 675.15,726.09 675.44,725.08C675.73,723.62 677.9,724.08 680.81,724.64C684.28,725.36 690.81,727.53 692.97,733.33C694.43,737.24 691.97,744.49 690.5,752.33C690.219,753.814 690.028,755.313 689.93,756.82C691.179,756.679 692.441,756.679 693.69,756.82C696.01,757.11 697.9,760.01 695.59,765.82C701.67,759.59 710.22,751.62 719.06,746.82C726.74,742.76 737.45,739.29 745.57,746.25C752.97,752.77 751.37,761.6 747.9,775.08C743.25,793.34 739.34,813.48 748.18,817.68C755.72,821.3 765.28,820.28 780.18,799.14C780.76,798.4 782.06,796.23 782.79,796.53C783.85,797 782.55,799.14 781.83,800.44ZM668.66,796.53C673.58,788.99 679.52,779.86 682.28,773.53C682.43,772.95 682.71,772.53 682.86,771.93C683.01,769.46 683.15,767.01 683.29,764.68C682.583,764.488 681.853,764.394 681.12,764.4C677.49,764.4 663.01,767.59 662.87,775.84C662.71,781.17 665.47,789 668.66,796.53ZM681.66,789.71C681.454,790.117 681.213,790.505 680.94,790.87C678.47,794.93 676.45,798.26 675.57,799.87C674.85,801.46 673.84,803.34 672.82,805.67C676.45,812.77 679.82,818.12 680.22,817.98C681.22,817.69 680.94,810.74 681.22,799.98C681.26,797.68 681.42,794.06 681.7,789.71L681.66,789.71Z" style="fill:white;fill-rule:nonzero;"/>
        <path d="M819.47,810.29C836.86,815.79 845.99,823.19 850.78,830.14C853.38,833.9 854.25,836.66 854.25,839.85C854.25,844.05 851.79,846.37 848.31,846.37C845.31,846.37 843.38,844.63 841.31,840.28C836.68,830.73 830.74,821.88 817.83,812.76L819.47,810.29Z" style="fill:white;fill-rule:nonzero;"/>
        <path d="M1028,728.56C1026.16,730.276 1023.83,731.39 1021.34,731.75L1021.34,807.24C1021.34,818.84 1022.21,833.33 1022.5,841.3C1020.08,843.912 1016.77,845.517 1013.22,845.79C1011.78,845.79 1011.05,844.34 1011.05,842.9C1011.51,840.17 1011.75,837.408 1011.78,834.64L945.24,834.64C945.215,837.066 945.409,839.489 945.82,841.88C945.24,843.88 941.75,846.51 937.82,846.51C935.95,846.51 934.35,845.07 934.35,843.62C935.21,831.15 935.95,818.69 935.95,805.94L935.95,746.39C935.941,737.39 935.067,728.412 933.34,719.58L946.08,725.23L1010.28,725.23L1015.78,718.57L1028,728.56ZM945.27,729.43L945.27,759.71L1011.78,760.29L1011.78,729.43L945.27,729.43ZM945.27,763.92L945.27,794.63L1011.78,795.21L1011.78,763.92L945.27,763.92ZM1011.78,830.43L1011.78,799L945.24,799L945.24,830.45L1011.78,830.43Z" style="fill:white;fill-rule:nonzero;"/>
        <path d="M1096.63,731.75C1096.35,731.31 1095.48,730.3 1095.77,729.75C1096.49,728.59 1097.65,729.32 1098.38,729.75C1105.19,733.522 1109.34,740.81 1109.1,748.59C1109.1,753.8 1102.58,766.26 1100.56,774.96C1098.09,784.96 1098.81,789.6 1100.12,794.24C1100.4,795.4 1100.26,795.98 1101.42,796.12C1102.58,796.26 1103.01,795.4 1103.73,793.66C1104.45,791.92 1109.73,779.6 1110.25,777.87C1110.77,776.14 1111.43,776.27 1111.85,776.41C1112.27,776.55 1112.29,777.13 1111.85,778.59C1111.41,780.05 1106.64,797.28 1106.78,805.69C1107.08,814.23 1109.68,825.97 1110.11,828.29C1110.14,828.499 1110.16,828.711 1110.16,828.923C1110.16,830.866 1108.71,832.526 1106.78,832.78C1103.89,833.07 1100.12,829.3 1098.67,825.39C1097.07,821.47 1093.3,810.9 1092.88,790.75C1092.58,771.63 1098.81,758.15 1100.4,743.81C1101.13,738.57 1097.07,732.19 1096.63,731.75ZM1134.17,810.15C1137.82,812.999 1142.01,815.069 1146.49,816.23C1151.99,817.68 1165.49,817.39 1178.36,815.07C1184.6,813.92 1188.07,817.39 1188.21,820.28C1188.21,823.33 1184.74,824.63 1182.27,825.36C1179.8,826.09 1151.99,829.42 1141.27,822.89C1137.2,820.17 1133.99,816.356 1131.99,811.89C1131.41,810.89 1130.99,809.42 1131.41,809C1132.15,808.41 1133.3,809.57 1134.17,810.15ZM1138.23,741.46C1141.92,742.858 1145.88,743.451 1149.82,743.2C1156.05,742.91 1169.82,740.44 1172.82,739.43C1175.82,738.42 1180.65,740.88 1181.37,743.49C1182.09,746.1 1178.76,747.98 1175.57,749C1172.38,750.02 1157.18,752.61 1148.33,750.44C1141.52,748.84 1136.33,745.23 1134.56,741.74C1134.13,740.88 1133.98,740.15 1134.28,739.74C1134.74,739 1137.21,741 1138.23,741.46Z" style="fill:white;fill-rule:nonzero;"/>
        <path d="M1350.22,750.16C1349.78,754.36 1343.98,753.35 1341.81,753.05C1339.93,752.77 1319.81,749.72 1301.81,751.45C1301.51,760.29 1301.23,770.45 1301.37,777.68C1304.37,783.48 1305.72,792.46 1305.58,803.77C1305.14,832.46 1278.47,841.3 1275.28,842.32C1274.28,842.75 1273.41,842.9 1273.11,842.32C1272.83,841.58 1273.11,840.86 1274.42,840.32C1296.88,830.32 1298.18,807 1298.18,807C1297.18,808.87 1292.67,812.5 1289.34,812.36C1282.68,812.36 1279.34,804.96 1278.04,802.21C1276.74,799.46 1274.27,796.27 1273.27,788.45C1272.53,783.66 1274.27,772.65 1285.72,770.34C1288.91,769.48 1292.3,769.785 1295.29,771.2C1295.72,768.01 1296.01,762.36 1295.86,752.2C1278.47,754.65 1273.55,757.27 1263.12,761.75C1260.22,763.05 1251.67,767.75 1243.55,762.63C1240.83,760.934 1238.39,758.829 1236.31,756.39C1235.15,755.23 1234.72,753.93 1235.31,753.39C1236.61,752.07 1238.94,753.96 1242.71,754.39C1247.79,754.843 1252.91,754.549 1257.91,753.52C1261.98,752.64 1280.91,749.03 1295.74,746.7C1295.74,743.23 1295.45,739.32 1295.31,734.97C1295.01,729.75 1292.55,725.4 1290.66,723.8C1289.22,722.65 1287.33,722.22 1287.49,721.05C1287.63,720.05 1288.21,719.61 1289.36,719.17C1292.23,718.448 1295.26,718.76 1297.92,720.05C1302.11,721.93 1303.42,723.38 1304,725.84C1304.44,728.01 1303.86,729.32 1303.42,730.9C1307.91,733.67 1318.34,739.75 1325.42,741.63C1334.56,744.24 1340.2,743.63 1343.25,744.38C1346.73,744.93 1350.8,746 1350.22,750.16ZM1294.58,788.85C1294.42,778.85 1291.24,774.21 1287.48,774.35C1285.73,774.49 1275.29,778.12 1277.62,787.53C1279.95,796.94 1284.62,801.31 1289.21,801.31C1292.11,801.31 1294.86,798.84 1294.58,788.85ZM1314.42,741.6C1313.27,740.88 1306.74,736.1 1302.97,733.34C1302.68,735.66 1302.4,740.34 1302.1,745.81C1305.41,745.302 1308.75,744.968 1312.1,744.81C1313.69,744.81 1316.59,744.52 1316.73,743.94C1316.89,743.49 1315.72,742.48 1314.42,741.6Z" style="fill:white;fill-rule:nonzero;"/>
        <path d="M1441,813.34C1445.35,814.64 1451.14,820.44 1452.45,826.52L1452.45,827L1453.03,826.84C1473.75,819.46 1477.52,786.42 1452.45,781.21C1449.99,780.593 1447.45,780.298 1444.91,780.33C1435.91,780.19 1424.77,783.81 1411.91,805.54C1410.31,808.15 1408.29,811.92 1406.55,813.38C1405.79,813.916 1404.87,814.171 1403.94,814.1C1402.51,814.144 1401.13,813.559 1400.17,812.5C1397.86,809.17 1399.45,805.7 1401.62,802.07C1402.21,801.07 1409.01,792.94 1411.76,789.47C1412.25,788.732 1412.84,788.06 1413.5,787.47C1423.07,775.47 1436.4,754.72 1443.5,743.28L1443.79,742.7C1445.39,740.23 1447.79,736.32 1445.09,734C1444.98,733.985 1444.89,733.936 1444.81,733.86C1444.37,733.43 1443.81,733.13 1443.21,732.99C1441.48,732.55 1440.02,734.44 1439.15,735.74C1437.99,737.48 1431.47,746.47 1424.37,749.5C1423.14,750.029 1421.8,750.281 1420.46,750.24C1417.85,750.24 1413.06,748.92 1411.19,740.82C1410.84,739.597 1410.74,738.313 1410.9,737.05C1412.06,736.47 1412.9,737.77 1413.5,738.65C1414.54,739.785 1416.03,740.416 1417.57,740.38C1418.2,740.351 1418.83,740.254 1419.44,740.09C1422.2,739.23 1427.56,736.32 1434.38,730.81C1437.99,727.917 1442.33,726.917 1447.38,727.81C1450.57,728.39 1456.51,730.41 1457.96,734.33C1459.12,737.33 1458.4,739.98 1455.65,742.87C1453.9,744.76 1426.37,777.79 1423.76,782.58L1423.04,784.03L1424.48,783.03C1426.95,781.58 1435.35,775.79 1447.38,776.08C1450.08,776.055 1452.77,776.391 1455.38,777.08C1458.49,777.653 1461.52,778.628 1464.38,779.98C1484.23,789.69 1483.38,818.38 1465.1,829.39C1454.67,835.77 1439.74,839.25 1428.59,832.87C1417.14,826.35 1422.94,812.3 1435.25,812.58C1437.19,812.576 1439.13,812.831 1441,813.34ZM1444.19,829.27C1444.38,829.143 1444.44,828.889 1444.33,828.69C1442.88,823.19 1440.56,819.69 1435.64,818.84C1434.98,818.718 1434.31,818.667 1433.64,818.69C1429.45,818.84 1428.58,822.17 1428.58,824.05C1428.63,824.692 1428.88,825.302 1429.3,825.79C1431.47,828.12 1437.55,829.85 1441.48,829.85C1443.78,830 1444.06,829.56 1444.22,829.27L1444.19,829.27Z" style="fill:white;fill-rule:nonzero;"/>
        <path d="M1523.47,826.8C1523.51,815.661 1532.69,806.52 1543.83,806.52C1555,806.52 1564.19,815.711 1564.19,826.88C1564.19,838.023 1555.04,847.202 1543.9,847.24C1532.7,847.218 1523.49,838.003 1523.47,826.8ZM1528.39,826.8C1528.39,826.931 1528.38,827.062 1528.38,827.193C1528.38,835.663 1535.36,842.633 1543.83,842.633C1552.3,842.633 1559.27,835.663 1559.27,827.193C1559.27,827.062 1559.26,826.931 1559.26,826.8C1559.05,818.481 1552.15,811.753 1543.83,811.753C1535.5,811.753 1528.6,818.481 1528.39,826.8Z" style="fill:white;fill-rule:nonzero;"/>
        <path d="M289.44,574L325.91,579.85L325.91,594.71L213.36,594.71L213.36,579.85L253,574C253.6,540.393 253.903,512.333 253.91,489.82L253.91,463.71C253.91,432.503 253.607,409.243 253,393.93L210.69,390.77L210.69,375.92L283.17,351.61L289.92,356.56L288.57,421.84L288.57,489.84C288.55,512.34 288.84,540.393 289.44,574ZM270.08,289C262.417,289.171 254.982,286.342 249.37,281.12C243.663,275.88 240.813,269.213 240.82,261.12C240.82,252.72 243.593,245.89 249.14,240.63C254.687,235.37 261.667,232.747 270.08,232.76C278.48,232.76 285.46,235.383 291.02,240.63C296.58,245.877 299.353,252.707 299.34,261.12C299.34,269.22 296.567,275.887 291.02,281.12C285.473,286.353 278.493,288.98 270.08,289Z" style="fill:white;fill-rule:nonzero;"/>
        <path d="M538,515.93L558.2,515.93L553.2,594.71L361.47,594.71L361.47,579.4L509.58,375.47L397.94,375.47L383.94,431.74L363.72,429L367.32,357.87L550.55,357.87L550.55,372.28L402.89,577.15L522.64,577.15L538,515.93Z" style="fill:white;fill-rule:nonzero;"/>
        <path d="M970.13,574L1006.59,579.85L1006.59,594.71L894.5,594.71L894.5,579.85L933.66,574.45C934.26,540.237 934.56,512.027 934.56,489.82L934.56,442.55C934.56,419.45 931.033,403.32 923.98,394.16C916.927,385 905.75,380.42 890.45,380.42C866.45,380.42 841.987,392.727 817.06,417.34C818.01,425.408 818.461,433.527 818.41,441.65L818.41,489.82C818.41,512.333 818.713,540.393 819.32,574L855.78,579.85L855.78,594.71L743.68,594.71L743.68,579.85L782.85,574.45C783.443,540.843 783.743,512.633 783.75,489.82L783.75,443.45C783.75,420.643 780.3,404.437 773.4,394.83C766.5,385.223 755.7,380.42 741,380.42C718.493,380.42 694.183,392.42 668.07,416.42L668.07,489.8C668.07,512.313 668.37,540.373 668.97,573.98L705.44,579.83L705.44,594.69L592.87,594.69L592.87,579.85L631.59,574.45C632.49,548.95 632.94,520.74 632.94,489.82L632.94,464.16C632.94,445.853 632.34,422.593 631.14,394.38L590.14,390.77L590.14,376.37L656.32,351.61L663.07,356.56L666.67,398.88C695.17,367.067 724.883,351.16 755.81,351.16C787.617,351.16 807.123,367.367 814.33,399.78C840.443,367.36 870.907,351.153 905.72,351.16C948.04,351.16 969.2,380.12 969.2,438.04L969.2,489.82C969.22,512.333 969.53,540.393 970.13,574Z" style="fill:white;fill-rule:nonzero;"/>
        <path d="M1247.45,474.06L1082.68,473.61C1082.97,506.63 1090.92,531.84 1106.54,549.24C1122.16,566.64 1142.72,575.343 1168.21,575.35C1196.13,575.35 1220.13,563.35 1240.21,539.35L1250.12,547C1229.71,583 1198.49,601 1156.48,601C1123.46,601 1096.68,590.047 1076.13,568.14C1055.58,546.233 1045.3,516.07 1045.28,477.65C1045.28,440.137 1056.31,409.673 1078.36,386.26C1100.41,362.847 1127.05,351.143 1158.28,351.15C1185.29,351.15 1207.42,359.703 1224.69,376.81C1241.96,393.917 1250.58,416.727 1250.57,445.24C1250.59,458.16 1249.55,467.767 1247.45,474.06ZM1083.13,456.06L1191.13,456.06C1200.73,456.06 1207.26,453.883 1210.71,449.53C1214.16,445.19 1215.89,438.95 1215.89,430.85C1215.89,414.05 1210.26,399.643 1199.01,387.63C1187.76,375.617 1173.42,369.617 1156.01,369.63C1137.69,369.63 1121.63,377.133 1107.84,392.14C1094.05,407.147 1085.81,428.45 1083.13,456.05L1083.13,456.06Z" style="fill:white;fill-rule:nonzero;"/>
        <path d="M1526.12,574L1562.58,579.85L1562.58,594.71L1449.58,594.71L1449.58,579.85L1488.75,574.45C1489.34,540.843 1489.64,512.633 1489.65,489.82L1489.65,443.45C1489.65,420.043 1486.28,403.613 1479.53,394.16C1472.78,384.707 1461.75,379.987 1446.43,380C1423.02,380 1397.81,392.307 1370.8,416.92L1370.8,489.85C1370.8,512.363 1371.1,540.423 1371.7,574.03L1408.17,579.88L1408.17,594.74L1295.62,594.74L1295.62,579.85L1334.33,574.45C1335.23,548.95 1335.68,520.74 1335.68,489.82L1335.68,464.16C1335.68,446.46 1335.08,423.2 1333.88,394.38L1292.88,390.77L1292.88,376.37L1359.05,351.61L1365.81,356.56L1369.41,398.88C1381.85,384.484 1396.9,372.568 1413.76,363.76C1430.11,355.36 1446.09,351.16 1461.7,351.16C1483.03,351.16 1498.87,358.29 1509.2,372.55C1519.53,386.81 1524.71,409.843 1524.72,441.65L1524.72,489.82C1524.75,520.74 1525.21,548.8 1526.12,574Z" style="fill:white;fill-rule:nonzero;"/>
        <path d="M1672.88,574L1709.34,579.85L1709.34,594.71L1596.8,594.71L1596.8,579.85L1636.41,574C1637,540.393 1637.3,512.333 1637.31,489.82L1637.31,463.71C1637.31,432.503 1637.01,409.243 1636.41,393.93L1594.09,390.77L1594.09,375.92L1666.58,351.61L1673.33,356.56L1672,421.84L1672,489.84C1672,512.34 1672.29,540.393 1672.88,574ZM1653.52,289C1645.86,289.171 1638.42,286.342 1632.81,281.12C1627.1,275.88 1624.25,269.213 1624.26,261.12C1624.26,252.72 1627.03,245.89 1632.58,240.63C1638.13,235.37 1645.11,232.747 1653.52,232.76C1661.92,232.76 1668.9,235.383 1674.46,240.63C1680.02,245.877 1682.79,252.707 1682.78,261.12C1682.78,269.22 1680.01,275.887 1674.46,281.12C1668.91,286.353 1661.93,288.98 1653.52,289Z" style="fill:white;fill-rule:nonzero;"/>
    </g>
</svg>
